# xmcd
#
# Track frame offsets:
#	225
#	18670
#	32484
#	47852
#	63383
#	74992
#	94620
#	111305
#	123468
#	141930
#	156599
#	177684
#	196440
#
# Disc length: 2946 seconds
#
# Revision: 1
# Processed by: cddbd v1.5.1PL0 Copyright (c) Steve Scherf et al.
# Submitted via: audiograbber 1.83.01
#
DISCID=cf0b7f0d
DTITLE=Hal Newman and The Mystics Of Time - America's Party Band [CD2]
DYEAR=1999
DGENRE=R&B
TTITLE0=Knock On Wood
TTITLE1=Tip Toes
TTITLE2=Soul Searchin'
TTITLE3=Something You Got
TTITLE4=You're Takin' My Heart By Storm
TTITLE5=Lovely New Orleans
TTITLE6=Te Ta Te Ta Ta
TTITLE7=Taylor Brown
TTITLE8=But I Do
TTITLE9=I Still Believe In Love
TTITLE10=It's Gonna Be Alright
TTITLE11=Yes, Yes, Yes
TTITLE12=Chicken Shack
EXTD=
EXTT0=
EXTT1=
EXTT2=
EXTT3=
EXTT4=
EXTT5=
EXTT6=
EXTT7=
EXTT8=
EXTT9=
EXTT10=
EXTT11=
EXTT12=
PLAYORDER=
